<svg xmlns="http://www.w3.org/2000/svg" xmlns:xlink="http://www.w3.org/1999/xlink" version="1.1" x="0px" y="0px" viewBox="0 0 100 100" style="background-color:#68d8d6;" xml:space="preserve"><g><path d="M36.93,81.7c-2.41,0-4.36,1.96-4.36,4.36s1.96,4.36,4.36,4.36c2.4,0,4.36-1.96,4.36-4.36S39.34,81.7,36.93,81.7z    M36.93,87.92c-1.03,0-1.86-0.84-1.86-1.86s0.84-1.86,1.86-1.86s1.86,0.84,1.86,1.86S37.96,87.92,36.93,87.92z"/><path d="M49.79,81.7c-2.4,0-4.36,1.96-4.36,4.36s1.96,4.36,4.36,4.36c2.41,0,4.36-1.96,4.36-4.36S52.2,81.7,49.79,81.7z    M49.79,87.92c-1.03,0-1.86-0.84-1.86-1.86s0.83-1.86,1.86-1.86s1.86,0.84,1.86,1.86S50.82,87.92,49.79,87.92z"/><path d="M62.62,81.7c-2.41,0-4.36,1.96-4.36,4.36s1.96,4.36,4.36,4.36c2.4,0,4.36-1.96,4.36-4.36S65.03,81.7,62.62,81.7z    M62.62,87.92c-1.03,0-1.86-0.84-1.86-1.86s0.84-1.86,1.86-1.86s1.86,0.84,1.86,1.86S63.65,87.92,62.62,87.92z"/><path d="M89.34,70.03c-0.74-5.8-2.06-15.69-6.17-18.76c-1.48-1.11-3.27-1.6-5.32-1.5v-4.56h4.37c2.6,0,4.72-2.12,4.72-4.72V10.84   c0-2.6-2.12-4.72-4.72-4.72H17.37c-2.6,0-4.72,2.12-4.72,4.72v29.65c0,2.6,2.12,4.72,4.72,4.72h4.37v4.56   c-2.01-0.09-3.78,0.41-5.24,1.5c-4.11,3.07-5.73,13.22-6.17,18.76c-2.17,0.01-3.93,1.77-3.93,3.94c0,2.17,1.77,3.94,3.94,3.94h2.14   c2.17,0,3.94-1.77,3.94-3.94c0-2.05-1.57-3.71-3.57-3.9c0.35-2.34,1.88-14.35,5.15-16.79c1.02-0.77,2.26-1.09,3.74-1.01v23   c0,2.6,2.12,4.72,4.72,4.72h2.66c-1.76,1.44-2.88,3.63-2.88,6.07c0,4.33,3.52,7.85,7.85,7.85H65.5c4.33,0,7.85-3.52,7.85-7.85   c0-2.45-1.12-4.63-2.88-6.07h2.66c2.6,0,4.72-2.12,4.72-4.72v-23c1.52-0.1,2.78,0.23,3.82,1c3.27,2.44,4.8,14.43,5.15,16.83   c-1.84,0.33-3.24,1.94-3.24,3.87c0,2.17,1.77,3.94,3.94,3.94h2.14c2.17,0,3.9-1.77,3.94-3.94C93.65,71.82,92.37,70.07,89.34,70.03z    M13.92,73.97c0,0.8-0.65,1.44-1.44,1.44h-2.14c-0.79,0-1.44-0.65-1.44-1.44c0-0.79,0.65-1.44,1.44-1.44h2.14   C13.27,72.53,13.92,73.18,13.92,73.97z M65.5,91.41H34.08c-2.95,0-5.35-2.4-5.35-5.35s2.4-5.35,5.35-5.35H65.5   c2.95,0,5.35,2.4,5.35,5.35S68.45,91.41,65.5,91.41z M17.37,42.71c-1.22,0-2.22-0.99-2.22-2.22V10.84c0-1.22,0.99-2.22,2.22-2.22   h64.84c1.22,0,2.22,0.99,2.22,2.22v29.65c0,1.22-0.99,2.22-2.22,2.22H17.37z M75.35,75.27c0,1.22-0.99,2.22-2.22,2.22H26.45   c-1.22,0-2.22-0.99-2.22-2.22V45.21h51.11V75.27z M89.67,75.41h-2.14c-0.8,0-1.44-0.65-1.44-1.44c0-0.79,0.65-1.44,1.44-1.44h2.14   c0.79,0,1.44,0.65,1.44,1.44C91.11,74.77,90.46,75.41,89.67,75.41z"/><path d="M72.83,13.2H26.75c-3.83,0-6.95,3.12-6.95,6.95s3.12,6.95,6.95,6.95h46.08c3.83,0,6.95-3.12,6.95-6.95   S76.67,13.2,72.83,13.2z M72.83,24.61H26.75c-2.46,0-4.45-2-4.45-4.45c0-2.46,2-4.45,4.45-4.45h46.08c2.46,0,4.45,2,4.45,4.45   C77.28,22.61,75.29,24.61,72.83,24.61z"/><path d="M27.67,35.53h44.24c0.43,0,0.77-0.35,0.77-0.77V33.8c0-0.43-0.35-0.77-0.77-0.77H27.67c-0.43,0-0.77,0.35-0.77,0.77v0.95   C26.9,35.18,27.24,35.53,27.67,35.53z"/><path d="M40.08,17.97h-4.11c-1.2,0-2.18,0.98-2.18,2.18s0.98,2.18,2.18,2.18h4.11c1.2,0,2.18-0.98,2.18-2.18   S41.28,17.97,40.08,17.97z"/><path d="M63.62,17.97H59.5c-1.2,0-2.18,0.98-2.18,2.18s0.98,2.18,2.18,2.18h4.11c1.2,0,2.18-0.98,2.18-2.18   S64.82,17.97,63.62,17.97z"/><path d="M34.3,59.94c2.55,0,4.63-2.08,4.63-4.63s-2.08-4.63-4.63-4.63s-4.63,2.08-4.63,4.63S31.74,59.94,34.3,59.94z M34.3,53.18   c1.18,0,2.13,0.96,2.13,2.13s-0.96,2.13-2.13,2.13s-2.13-0.96-2.13-2.13S33.12,53.18,34.3,53.18z"/><path d="M34.3,71.71c2.55,0,4.63-2.08,4.63-4.63s-2.08-4.63-4.63-4.63s-4.63,2.08-4.63,4.63S31.74,71.71,34.3,71.71z M34.3,64.95   c1.18,0,2.13,0.96,2.13,2.13s-0.96,2.13-2.13,2.13s-2.13-0.96-2.13-2.13S33.12,64.95,34.3,64.95z"/><path d="M46.42,71.71h19.1c1.74,0,3.16-1.42,3.16-3.16V53.84c0-1.74-1.42-3.16-3.16-3.16h-19.1c-1.74,0-3.16,1.42-3.16,3.16v14.71   C43.26,70.29,44.68,71.71,46.42,71.71z M45.76,54.87c0-0.93,0.76-1.69,1.69-1.69H64.5c0.93,0,1.69,0.76,1.69,1.69v12.65   c0,0.93-0.76,1.69-1.69,1.69H47.45c-0.93,0-1.69-0.76-1.69-1.69V54.87z"/></g><text x="87" y="97" fill="#000000" font-size="5px" font-weight="bold" font-family="'Helvetica Neue', Helvetica, Arial-Unicode, Arial, Sans-serif">Lv 2</text></svg>