<svg xmlns="http://www.w3.org/2000/svg" xmlns:xlink="http://www.w3.org/1999/xlink" version="1.1" x="0px" y="0px" viewBox="0 0 100 100" style="background-color:#07beb8;" xml:space="preserve"><g><path d="M86.54,63.66c-0.85-0.33-1.78-0.47-2.72-0.47c-0.12-0.79-0.23-1.61-0.34-2.47c-0.69-5.28-1.47-11.27-5.03-13.93   c-1.25-0.93-2.74-1.37-4.44-1.32v-3.5h3c2.6,0,4.72-2.11,4.72-4.72v-7.53h5.93c1.45,0,2.62-1.17,2.62-2.62V23.3   c0-1.45-1.17-2.62-2.62-2.62h-0.54v-8.3c1.54-0.59,2.57-2.22,2.19-4.04c-0.27-1.3-1.31-2.37-2.61-2.67   c-2.3-0.53-4.36,1.21-4.36,3.43c0,1.5,0.95,2.78,2.27,3.28v8.3h-2.89V13.1c0-2.6-2.11-4.72-4.72-4.72H22.95   c-2.6,0-4.72,2.11-4.72,4.72v7.55h-2.89v-8.3c1.54-0.59,2.57-2.22,2.19-4.04c-0.27-1.3-1.31-2.37-2.61-2.67   c-2.3-0.53-4.36,1.21-4.36,3.42c0,1.5,0.95,2.78,2.27,3.28v8.3H12.3c-1.45,0-2.62,1.17-2.62,2.62v3.81c0,1.45,1.17,2.62,2.62,2.62   h5.93v7.55c0,2.6,2.11,4.72,4.72,4.72h3v3.49c-1.67-0.04-3.14,0.4-4.38,1.32c-3.56,2.66-4.34,8.65-5.03,13.93   c-0.11,0.85-0.22,1.67-0.34,2.46c-2.78,0.02-5.5,1.42-6.34,4.39c-0.11,0.4,0.14,0.81,0.55,0.88l1.13,0.18   c0.33,0.05,0.65-0.14,0.75-0.46c0.73-2.39,3.37-2.66,4.92-2.42c2.02,0.32,4.03,1.67,3.99,3.92c-0.01,0.33,0.24,0.61,0.57,0.66   l1.13,0.18c0.41,0.07,0.78-0.25,0.79-0.67c0.14-3.24-2.21-5.49-5.02-6.31c0.12-0.8,0.23-1.62,0.34-2.48   c0.62-4.79,1.33-10.22,4.04-12.25c0.79-0.59,1.74-0.85,2.88-0.82v18.84c0,2.6,2.11,4.72,4.72,4.72h10.51v6.93h-1.35   c-1.37,0-2.48,1.11-2.48,2.48v5.43c-2.78,0.56-4.88,3.02-4.89,5.96c0,1.17,0.93,2.12,2.1,2.12h10.87c1.16,0,2.1-0.94,2.1-2.1V80.94   c0-1.37-1.11-2.48-2.48-2.48h-1.35v-6.93h12.61v6.93h-1.35c-1.37,0-2.48,1.11-2.48,2.48v11.42c0,1.16,0.94,2.1,2.1,2.1h10.87   c1.17,0,2.1-0.95,2.1-2.12c-0.01-2.94-2.11-5.4-4.89-5.96v-5.43c0-1.37-1.11-2.48-2.48-2.48h-1.35v-6.93h10.51   c2.6,0,4.72-2.11,4.72-4.72V47.97c1.16-0.05,2.14,0.21,2.95,0.81c2.71,2.03,3.42,7.46,4.04,12.25c0.11,0.86,0.22,1.68,0.34,2.48   c-1.01,0.29-1.96,0.77-2.76,1.41c-1.55,1.26-2.34,2.98-2.26,4.9c0.02,0.42,0.38,0.73,0.79,0.67l1.13-0.18   c0.33-0.05,0.58-0.33,0.57-0.66c-0.03-1.37,0.69-2.26,1.34-2.79c1.45-1.17,3.76-1.55,5.49-0.88c0.76,0.29,1.69,0.9,2.08,2.17   c0.1,0.32,0.42,0.5,0.75,0.45l1.13-0.18c0.41-0.07,0.66-0.48,0.55-0.88C89.63,65.73,88.37,64.36,86.54,63.66z M85.86,8.07   c0.56,0,1.02,0.46,1.02,1.02c0,0.56-0.46,1.02-1.02,1.02s-1.02-0.46-1.02-1.02C84.84,8.52,85.3,8.07,85.86,8.07z M14.09,8.05   c0.56,0,1.02,0.46,1.02,1.02c0,0.56-0.46,1.02-1.02,1.02s-1.02-0.46-1.02-1.02C13.07,8.5,13.53,8.05,14.09,8.05z M45.01,91.95   H34.97c0.2-1.8,1.73-3.21,3.58-3.21h6.46V91.95z M45.01,86.25h-5.17l-0.01-4.47c0-0.46,0.37-0.83,0.82-0.83l3.53-0.01   c0.46,0,0.83,0.37,0.83,0.82V86.25z M64.99,91.95H54.95v-3.21h6.46C63.26,88.75,64.79,90.15,64.99,91.95z M60.12,86.25h-5.17   l-0.01-4.47c0-0.46,0.37-0.83,0.82-0.83l3.53-0.01c0.46,0,0.83,0.37,0.83,0.82V86.25z M86.92,23.17c0.47,0,0.85,0.38,0.85,0.85   v2.35c0,0.47-0.38,0.85-0.85,0.85h-5.2v-4.05H86.92z M13.03,27.21c-0.47,0-0.85-0.38-0.85-0.85V24c0-0.47,0.38-0.85,0.85-0.85h5.2   v4.05H13.03z M22.95,39.47c-1.22,0-2.22-0.99-2.22-2.22V13.1c0-1.22,0.99-2.22,2.22-2.22h54.06c1.22,0,2.22,0.99,2.22,2.22v24.15   c0,1.22-0.99,2.22-2.22,2.22H22.95z M71.5,66.81c0,1.22-0.99,2.22-2.22,2.22H30.67c-1.22,0-2.22-0.99-2.22-2.22V41.97H71.5V66.81z"/><path d="M35.75,54.07c2.14,0,3.89-1.74,3.89-3.89s-1.74-3.89-3.89-3.89c-2.14,0-3.89,1.74-3.89,3.89S33.61,54.07,35.75,54.07z    M35.75,48.79c0.76,0,1.39,0.62,1.39,1.39c0,0.76-0.62,1.39-1.39,1.39c-0.76,0-1.39-0.62-1.39-1.39   C34.36,49.42,34.99,48.79,35.75,48.79z"/><path d="M45.75,54.07c2.14,0,3.89-1.74,3.89-3.89s-1.74-3.89-3.89-3.89c-2.14,0-3.89,1.74-3.89,3.89S43.61,54.07,45.75,54.07z    M45.75,48.79c0.76,0,1.39,0.62,1.39,1.39c0,0.76-0.62,1.39-1.39,1.39c-0.76,0-1.39-0.62-1.39-1.39   C44.36,49.42,44.99,48.79,45.75,48.79z"/><path d="M60.66,54.07c3.71,0,7.46-1.33,7.46-3.89s-3.75-3.89-7.46-3.89s-7.46,1.33-7.46,3.89S56.95,54.07,60.66,54.07z    M60.66,48.79c3.14,0,4.84,1.02,4.96,1.36c-0.12,0.39-1.83,1.41-4.96,1.41c-3.07,0-4.78-0.98-4.95-1.39   C55.89,49.78,57.59,48.79,60.66,48.79z"/><path d="M55.36,27.85H44.6c-1.52,0-2.75,1.24-2.75,2.75v1.15c0,1.52,1.24,2.75,2.75,2.75h10.76c1.52,0,2.75-1.24,2.75-2.75V30.6   C58.11,29.08,56.88,27.85,55.36,27.85z M55.61,31.76c0,0.14-0.11,0.25-0.25,0.25H44.6c-0.14,0-0.25-0.11-0.25-0.25V30.6   c0-0.14,0.11-0.25,0.25-0.25h10.76c0.14,0,0.25,0.11,0.25,0.25V31.76z"/><path d="M44.01,20.7V18.3c0-1.29-1.05-2.34-2.34-2.34h-2.39c-1.29,0-2.34,1.05-2.34,2.34v2.39c0,1.29,1.05,2.34,2.34,2.34h2.39   C42.96,23.04,44.01,21.99,44.01,20.7z M41.51,20.54h-2.07v-2.07h2.07V20.54z"/><path d="M60.67,15.97h-2.39c-1.29,0-2.34,1.05-2.34,2.34v2.39c0,1.29,1.05,2.34,2.34,2.34h2.39c1.29,0,2.34-1.05,2.34-2.34V18.3   C63.01,17.01,61.96,15.97,60.67,15.97z M60.51,20.54h-2.07v-2.07h2.07V20.54z"/></g><text x="80" y="95" fill="#000000" font-size="8px" font-weight="bold" font-family="'Helvetica Neue', Helvetica, Arial-Unicode, Arial, Sans-serif">Lv 3</text></svg>