<svg xmlns="http://www.w3.org/2000/svg" xmlns:xlink="http://www.w3.org/1999/xlink" version="1.1" x="0px" y="0px" viewBox="0 0 100 100" style="background-color:#c4fff9;" xml:space="preserve"><g><path d="M67.44,46.95H32.56c-4.49,0-8.14,3.65-8.14,8.14s3.65,8.14,8.14,8.14h34.87c4.49,0,8.14-3.65,8.14-8.14   S71.92,46.95,67.44,46.95z M67.44,60.73H32.56c-3.11,0-5.64-2.53-5.64-5.64s2.53-5.64,5.64-5.64h34.87c3.11,0,5.64,2.53,5.64,5.64   S70.55,60.73,67.44,60.73z"/><path d="M40,50.87c-2.21,0-4,1.8-4,4s1.8,4,4,4s4-1.8,4-4S42.21,50.87,40,50.87z M40,56.38c-0.83,0-1.5-0.67-1.5-1.5   s0.67-1.5,1.5-1.5s1.5,0.67,1.5,1.5S40.83,56.38,40,56.38z"/><path d="M60,50.87c-2.21,0-4,1.8-4,4s1.8,4,4,4s4-1.8,4-4S62.21,50.87,60,50.87z M60,56.38c-0.83,0-1.5-0.67-1.5-1.5   s0.67-1.5,1.5-1.5s1.5,0.67,1.5,1.5S60.83,56.38,60,56.38z"/><path d="M32.05,79.34h35.9c0.69,0,1.25-0.56,1.25-1.25l0,0c0-0.69-0.56-1.25-1.25-1.25h-35.9c-0.69,0-1.25,0.56-1.25,1.25l0,0   C30.8,78.78,31.36,79.34,32.05,79.34z"/><path d="M88.8,49.84h-4.58v-6.49c0-2.6-2.12-4.72-4.71-4.72H61.99l11.2-18.79c0.67,0.24,1.38,0.37,2.12,0.37   c3.52,0,6.38-2.86,6.38-6.38s-2.86-6.38-6.38-6.38s-6.38,2.86-6.38,6.38c0,1.87,0.82,3.56,2.11,4.72L59.08,38.63H40.92L28.96,18.56   c1.29-1.17,2.11-2.85,2.11-4.72c0-3.52-2.86-6.38-6.38-6.38s-6.38,2.86-6.38,6.38s2.86,6.38,6.38,6.38c0.75,0,1.46-0.14,2.12-0.37   l11.2,18.79H20.5c-2.6,0-4.71,2.12-4.71,4.72v6.49H11.2c-1.77,0-3.21,1.44-3.21,3.21v12.74c0,1.77,1.44,3.21,3.21,3.21h4.58v18.84   c0,2.6,2.12,4.72,4.71,4.72h59c2.6,0,4.71-2.12,4.71-4.72V68.99h4.58c1.77,0,3.21-1.44,3.21-3.21V53.05   C92.01,51.28,90.57,49.84,88.8,49.84z M75.31,9.96c2.14,0,3.88,1.74,3.88,3.88s-1.74,3.88-3.88,3.88c-2.14,0-3.88-1.74-3.88-3.88   S73.17,9.96,75.31,9.96z M20.81,13.84c0-2.14,1.74-3.88,3.88-3.88c2.14,0,3.88,1.74,3.88,3.88s-1.74,3.88-3.88,3.88   C22.55,17.72,20.81,15.97,20.81,13.84z M11.2,66.49c-0.39,0-0.71-0.32-0.71-0.71V53.05c0-0.39,0.32-0.71,0.71-0.71h4.58v14.15H11.2   z M81.71,87.83c0,1.22-0.99,2.22-2.21,2.22h-59c-1.22,0-2.21-0.99-2.21-2.22V43.35c0-1.22,0.99-2.22,2.21-2.22h59   c1.22,0,2.21,0.99,2.21,2.22V87.83z M89.51,65.78c0,0.39-0.32,0.71-0.71,0.71h-4.58V52.34h4.58c0.39,0,0.71,0.32,0.71,0.71V65.78z"/></g><text x="87" y="97" fill="#000000" font-size="5px" font-weight="bold" font-family="'Helvetica Neue', Helvetica, Arial-Unicode, Arial, Sans-serif">Lv 1</text></svg>